<svg width="512" height="512" viewBox="0 0 512 512" fill="none" xmlns="http://www.w3.org/2000/svg">
  <defs>
    <linearGradient id="bg" x1="72" y1="52" x2="434" y2="458" gradientUnits="userSpaceOnUse">
      <stop stop-color="#FFF8EE"/>
      <stop offset="1" stop-color="#F1E4CF"/>
    </linearGradient>
    <linearGradient id="stroke" x1="132" y1="122" x2="378" y2="392" gradientUnits="userSpaceOnUse">
      <stop stop-color="#14968B"/>
      <stop offset="1" stop-color="#0A5C56"/>
    </linearGradient>
    <linearGradient id="accent" x1="180" y1="154" x2="318" y2="334" gradientUnits="userSpaceOnUse">
      <stop stop-color="#F8B84A"/>
      <stop offset="1" stop-color="#E59D2C"/>
    </linearGradient>
  </defs>

  <rect x="24" y="24" width="464" height="464" rx="120" fill="url(#bg)"/>
  <rect x="24" y="24" width="464" height="464" rx="120" stroke="#DCC8A8" stroke-width="12"/>

  <path d="M176 176C196.939 155.061 225.339 143.3 254.95 143.3C284.56 143.3 312.961 155.061 333.9 176C354.839 196.939 366.6 225.34 366.6 254.95C366.6 284.561 354.839 312.961 333.9 333.9C312.961 354.839 284.56 366.6 254.95 366.6C225.339 366.6 196.939 354.839 176 333.9C155.061 312.961 143.3 284.561 143.3 254.95C143.3 225.34 155.061 196.939 176 176Z" stroke="url(#stroke)" stroke-width="32"/>

  <path d="M350.5 350.5L401 401" stroke="url(#stroke)" stroke-width="28" stroke-linecap="round"/>

  <path d="M209 176V277.5C209 307.047 232.953 331 262.5 331C292.047 331 316 307.047 316 277.5V176" stroke="url(#stroke)" stroke-width="30" stroke-linecap="round" stroke-linejoin="round"/>

  <path d="M303.5 185.5L334 155" stroke="url(#accent)" stroke-width="18" stroke-linecap="round"/>
  <circle cx="334" cy="155" r="18" fill="url(#accent)"/>
</svg>
